<mxfile host="Electron" modified="2024-04-28T14:03:12.318Z" agent="Mozilla/5.0 (X11; Linux x86_64) AppleWebKit/537.36 (KHTML, like Gecko) draw.io/22.0.3 Chrome/118.0.5993.159 Electron/27.3.2 Safari/537.36" etag="EXoRDsKhtJ9GaXUGMwjt" version="22.0.3" type="device">
  <diagram id="C5RBs43oDa-KdzZeNtuy" name="Page-1">
    <mxGraphModel dx="1862" dy="700" grid="1" gridSize="10" guides="1" tooltips="1" connect="1" arrows="1" fold="1" page="1" pageScale="1" pageWidth="827" pageHeight="1169" math="0" shadow="0">
      <root>
        <mxCell id="WIyWlLk6GJQsqaUBKTNV-0" />
        <mxCell id="WIyWlLk6GJQsqaUBKTNV-1" parent="WIyWlLk6GJQsqaUBKTNV-0" />
        <mxCell id="uAZ2XLbEuPRWnmqVYtyT-0" value="Person" style="swimlane;whiteSpace=wrap;html=1;" vertex="1" parent="WIyWlLk6GJQsqaUBKTNV-1">
          <mxGeometry x="360" y="120" width="200" height="200" as="geometry" />
        </mxCell>
        <mxCell id="uAZ2XLbEuPRWnmqVYtyT-2" value="Age" style="text;html=1;align=center;verticalAlign=middle;resizable=0;points=[];autosize=1;strokeColor=none;fillColor=none;" vertex="1" parent="uAZ2XLbEuPRWnmqVYtyT-0">
          <mxGeometry x="80" y="90" width="40" height="30" as="geometry" />
        </mxCell>
        <mxCell id="uAZ2XLbEuPRWnmqVYtyT-3" value="Gender" style="text;html=1;align=center;verticalAlign=middle;resizable=0;points=[];autosize=1;strokeColor=none;fillColor=none;" vertex="1" parent="uAZ2XLbEuPRWnmqVYtyT-0">
          <mxGeometry x="70" y="140" width="60" height="30" as="geometry" />
        </mxCell>
        <mxCell id="uAZ2XLbEuPRWnmqVYtyT-1" value="Name" style="text;html=1;align=center;verticalAlign=middle;resizable=0;points=[];autosize=1;strokeColor=none;fillColor=none;" vertex="1" parent="uAZ2XLbEuPRWnmqVYtyT-0">
          <mxGeometry x="70" y="40" width="60" height="30" as="geometry" />
        </mxCell>
        <mxCell id="uAZ2XLbEuPRWnmqVYtyT-8" value="" style="endArrow=none;html=1;rounded=0;entryX=0.5;entryY=1;entryDx=0;entryDy=0;" edge="1" parent="WIyWlLk6GJQsqaUBKTNV-1" target="uAZ2XLbEuPRWnmqVYtyT-0">
          <mxGeometry width="50" height="50" relative="1" as="geometry">
            <mxPoint x="460" y="360" as="sourcePoint" />
            <mxPoint x="550" y="320" as="targetPoint" />
          </mxGeometry>
        </mxCell>
        <mxCell id="uAZ2XLbEuPRWnmqVYtyT-9" value="Patient" style="swimlane;whiteSpace=wrap;html=1;" vertex="1" parent="WIyWlLk6GJQsqaUBKTNV-1">
          <mxGeometry x="480" y="400" width="200" height="360" as="geometry" />
        </mxCell>
        <mxCell id="uAZ2XLbEuPRWnmqVYtyT-11" value="Doctor" style="text;html=1;align=center;verticalAlign=middle;resizable=0;points=[];autosize=1;strokeColor=none;fillColor=none;" vertex="1" parent="uAZ2XLbEuPRWnmqVYtyT-9">
          <mxGeometry x="70" y="60" width="60" height="30" as="geometry" />
        </mxCell>
        <mxCell id="uAZ2XLbEuPRWnmqVYtyT-12" value="Medication" style="text;html=1;align=center;verticalAlign=middle;resizable=0;points=[];autosize=1;strokeColor=none;fillColor=none;" vertex="1" parent="uAZ2XLbEuPRWnmqVYtyT-9">
          <mxGeometry x="60" y="85" width="80" height="30" as="geometry" />
        </mxCell>
        <mxCell id="uAZ2XLbEuPRWnmqVYtyT-10" value="&lt;font style=&quot;font-size: 12px;&quot;&gt;Disease&lt;/font&gt;" style="text;html=1;align=center;verticalAlign=middle;resizable=0;points=[];autosize=1;strokeColor=none;fillColor=none;" vertex="1" parent="uAZ2XLbEuPRWnmqVYtyT-9">
          <mxGeometry x="65" y="30" width="70" height="30" as="geometry" />
        </mxCell>
        <mxCell id="uAZ2XLbEuPRWnmqVYtyT-13" value="Fee" style="text;html=1;align=center;verticalAlign=middle;resizable=0;points=[];autosize=1;strokeColor=none;fillColor=none;" vertex="1" parent="uAZ2XLbEuPRWnmqVYtyT-9">
          <mxGeometry x="80" y="115" width="40" height="30" as="geometry" />
        </mxCell>
        <mxCell id="uAZ2XLbEuPRWnmqVYtyT-14" value="Paid fee" style="text;html=1;align=center;verticalAlign=middle;resizable=0;points=[];autosize=1;strokeColor=none;fillColor=none;" vertex="1" parent="uAZ2XLbEuPRWnmqVYtyT-9">
          <mxGeometry x="65" y="145" width="70" height="30" as="geometry" />
        </mxCell>
        <mxCell id="uAZ2XLbEuPRWnmqVYtyT-29" value="Bank Balance" style="text;html=1;align=center;verticalAlign=middle;resizable=0;points=[];autosize=1;strokeColor=none;fillColor=none;" vertex="1" parent="uAZ2XLbEuPRWnmqVYtyT-9">
          <mxGeometry x="50" y="185" width="100" height="30" as="geometry" />
        </mxCell>
        <mxCell id="uAZ2XLbEuPRWnmqVYtyT-15" value="" style="endArrow=none;html=1;rounded=0;exitX=0.5;exitY=0;exitDx=0;exitDy=0;" edge="1" parent="WIyWlLk6GJQsqaUBKTNV-1" source="uAZ2XLbEuPRWnmqVYtyT-9">
          <mxGeometry width="50" height="50" relative="1" as="geometry">
            <mxPoint x="500" y="410" as="sourcePoint" />
            <mxPoint x="460" y="360" as="targetPoint" />
            <Array as="points">
              <mxPoint x="580" y="360" />
            </Array>
          </mxGeometry>
        </mxCell>
        <mxCell id="uAZ2XLbEuPRWnmqVYtyT-23" value="" style="edgeStyle=orthogonalEdgeStyle;shape=flexArrow;rounded=0;orthogonalLoop=1;jettySize=auto;html=1;entryX=-0.017;entryY=0.557;entryDx=0;entryDy=0;entryPerimeter=0;" edge="1" parent="WIyWlLk6GJQsqaUBKTNV-1" target="uAZ2XLbEuPRWnmqVYtyT-11">
          <mxGeometry relative="1" as="geometry">
            <mxPoint x="440" y="499.71" as="sourcePoint" />
            <mxPoint x="540" y="499.71" as="targetPoint" />
          </mxGeometry>
        </mxCell>
        <mxCell id="uAZ2XLbEuPRWnmqVYtyT-16" value="Doctor" style="swimlane;whiteSpace=wrap;html=1;" vertex="1" parent="WIyWlLk6GJQsqaUBKTNV-1">
          <mxGeometry x="240" y="400" width="200" height="360" as="geometry" />
        </mxCell>
        <mxCell id="uAZ2XLbEuPRWnmqVYtyT-18" value="Degree" style="text;html=1;align=center;verticalAlign=middle;resizable=0;points=[];autosize=1;strokeColor=none;fillColor=none;" vertex="1" parent="uAZ2XLbEuPRWnmqVYtyT-16">
          <mxGeometry x="70" y="30" width="60" height="30" as="geometry" />
        </mxCell>
        <mxCell id="uAZ2XLbEuPRWnmqVYtyT-19" value="Shedule" style="text;html=1;align=center;verticalAlign=middle;resizable=0;points=[];autosize=1;strokeColor=none;fillColor=none;" vertex="1" parent="uAZ2XLbEuPRWnmqVYtyT-16">
          <mxGeometry x="65" y="60" width="70" height="30" as="geometry" />
        </mxCell>
        <mxCell id="uAZ2XLbEuPRWnmqVYtyT-20" value="Salary" style="text;html=1;align=center;verticalAlign=middle;resizable=0;points=[];autosize=1;strokeColor=none;fillColor=none;" vertex="1" parent="uAZ2XLbEuPRWnmqVYtyT-16">
          <mxGeometry x="70" y="90" width="60" height="30" as="geometry" />
        </mxCell>
        <mxCell id="uAZ2XLbEuPRWnmqVYtyT-21" value="Pay status" style="text;html=1;align=center;verticalAlign=middle;resizable=0;points=[];autosize=1;strokeColor=none;fillColor=none;" vertex="1" parent="uAZ2XLbEuPRWnmqVYtyT-16">
          <mxGeometry x="60" y="120" width="80" height="30" as="geometry" />
        </mxCell>
        <mxCell id="uAZ2XLbEuPRWnmqVYtyT-27" value="Check Patient" style="text;html=1;align=center;verticalAlign=middle;resizable=0;points=[];autosize=1;strokeColor=none;fillColor=none;" vertex="1" parent="uAZ2XLbEuPRWnmqVYtyT-16">
          <mxGeometry x="50" y="155" width="100" height="30" as="geometry" />
        </mxCell>
        <mxCell id="uAZ2XLbEuPRWnmqVYtyT-28" value="Update Medication" style="text;html=1;align=center;verticalAlign=middle;resizable=0;points=[];autosize=1;strokeColor=none;fillColor=none;" vertex="1" parent="uAZ2XLbEuPRWnmqVYtyT-16">
          <mxGeometry x="40" y="190" width="120" height="30" as="geometry" />
        </mxCell>
        <mxCell id="uAZ2XLbEuPRWnmqVYtyT-17" value="" style="endArrow=none;html=1;rounded=0;exitX=0.5;exitY=0;exitDx=0;exitDy=0;" edge="1" parent="WIyWlLk6GJQsqaUBKTNV-1" source="uAZ2XLbEuPRWnmqVYtyT-16">
          <mxGeometry width="50" height="50" relative="1" as="geometry">
            <mxPoint x="320" y="410" as="sourcePoint" />
            <mxPoint x="460" y="360" as="targetPoint" />
            <Array as="points">
              <mxPoint x="340" y="360" />
            </Array>
          </mxGeometry>
        </mxCell>
        <mxCell id="uAZ2XLbEuPRWnmqVYtyT-32" style="edgeStyle=orthogonalEdgeStyle;rounded=0;orthogonalLoop=1;jettySize=auto;html=1;" edge="1" parent="WIyWlLk6GJQsqaUBKTNV-1" source="uAZ2XLbEuPRWnmqVYtyT-24" target="uAZ2XLbEuPRWnmqVYtyT-19">
          <mxGeometry relative="1" as="geometry" />
        </mxCell>
        <mxCell id="uAZ2XLbEuPRWnmqVYtyT-24" value="Shedule" style="swimlane;whiteSpace=wrap;html=1;" vertex="1" parent="WIyWlLk6GJQsqaUBKTNV-1">
          <mxGeometry x="-80" y="400" width="200" height="200" as="geometry" />
        </mxCell>
        <mxCell id="uAZ2XLbEuPRWnmqVYtyT-26" value="Patient LIst" style="text;html=1;align=center;verticalAlign=middle;resizable=0;points=[];autosize=1;strokeColor=none;fillColor=none;" vertex="1" parent="uAZ2XLbEuPRWnmqVYtyT-24">
          <mxGeometry x="50" y="50" width="80" height="30" as="geometry" />
        </mxCell>
        <mxCell id="uAZ2XLbEuPRWnmqVYtyT-35" value="Check Status" style="text;html=1;align=center;verticalAlign=middle;resizable=0;points=[];autosize=1;strokeColor=none;fillColor=none;" vertex="1" parent="uAZ2XLbEuPRWnmqVYtyT-24">
          <mxGeometry x="45" y="125" width="90" height="30" as="geometry" />
        </mxCell>
        <mxCell id="uAZ2XLbEuPRWnmqVYtyT-34" value="Timing" style="text;html=1;align=center;verticalAlign=middle;resizable=0;points=[];autosize=1;strokeColor=none;fillColor=none;" vertex="1" parent="uAZ2XLbEuPRWnmqVYtyT-24">
          <mxGeometry x="60" y="85" width="60" height="30" as="geometry" />
        </mxCell>
        <mxCell id="uAZ2XLbEuPRWnmqVYtyT-36" value="Update Status" style="text;html=1;align=center;verticalAlign=middle;resizable=0;points=[];autosize=1;strokeColor=none;fillColor=none;" vertex="1" parent="uAZ2XLbEuPRWnmqVYtyT-24">
          <mxGeometry x="45" y="168" width="100" height="30" as="geometry" />
        </mxCell>
      </root>
    </mxGraphModel>
  </diagram>
</mxfile>
